# xmcd
#
# Track frame offsets:
#	150
#	9031
#	19637
#	30211
#	40343
#	50234
#	62224
#	73210
#	85122
#	94845
#	105086
#	113810
#	122702
#	136416
#	147435
#	157365
#	167813
#	179593
#
# Disc length: 2546 seconds
#
# Revision: 1
# Processed by: cddbd v1.5.2PL0 Copyright (c) Steve Scherf et al.
# Submitted via: audiograbber 1.83.01
#
DISCID=f509f012
DTITLE=The Shirelles - Will You Love Me Tomorrow ( CD 2 )
DYEAR=2012
DGENRE=Soul
TTITLE0=Tonight's The Night
TTITLE1=Big John
TTITLE2=The First One
TTITLE3=I Met Him On A Sunday
TTITLE4=Doin' The Ronde
TTITLE5=A Thing Of The Past
TTITLE6=I Saw A Tear
TTITLE7=It's Mine
TTITLE8=Johnny On My Mind
TTITLE9=Lower The Flame
TTITLE10=Oh, What A Waste Of Love
TTITLE11=I Got The Message
TTITLE12=Rainbow Valley
TTITLE13=Unlucky
TTITLE14=Stop Me
TTITLE15=What's Mine Is Yours
TTITLE16=I Want You To Be My Boyfriend
TTITLE17=The Dance Is Over
EXTD=
EXTT0=
EXTT1=
EXTT2=
EXTT3=
EXTT4=
EXTT5=
EXTT6=
EXTT7=
EXTT8=
EXTT9=
EXTT10=
EXTT11=
EXTT12=
EXTT13=
EXTT14=
EXTT15=
EXTT16=
EXTT17=
PLAYORDER=
